Coordinates
version=1
nRows=31
nColumns=38
inDegrees=no

Units are S.I. units (second, meters, Newtons, ...)
If the header above contains a line with 'inDegrees', this indicates whether rotational values are in degrees (yes) or radians (no).

endheader
time	pelvis_tilt	pelvis_list	pelvis_rotation	pelvis_tx	pelvis_ty	pelvis_tz	hip_flexion_r	hip_adduction_r	hip_rotation_r	knee_angle_r	ankle_angle_r	subtalar_angle_r	mtp_angle_r	hip_flexion_l	hip_adduction_l	hip_rotation_l	knee_angle_l	ankle_angle_l	subtalar_angle_l	mtp_angle_l	lumbar_extension	lumbar_bending	lumbar_rotation	arm_flex_r	arm_add_r	arm_rot_r	elbow_flex_r	pro_sup_r	wrist_flex_r	wrist_dev_r	arm_flex_l	arm_add_l	arm_rot_l	elbow_flex_l	pro_sup_l	wrist_flex_l	wrist_dev_l
0	-2.55601	1.38846	1.18226	0.79475	0.723039	0.988701	0.679152	0.0347551	-0.0843681	0.521737	-0.116727	0	0	0.0335801	-0.220163	-0.163418	0.754568	-0.0697725	0	0	0.0652768	0.14238	-0.0794027	-0.194932	-0.255692	0.506594	0.298123	0.929078	0	0	0.623398	-0.582999	1.51834	0.334072	1.09861	0	0
0.01	-2.55654	1.38977	1.17602	0.793484	0.710654	0.989447	0.676813	0.0474608	-0.0586045	0.537692	-0.113069	0	0	0.0342324	-0.221796	-0.159379	0.778634	-0.088696	0	0	0.0651162	0.145066	-0.0680767	-0.195536	-0.255133	0.519304	0.293804	0.906711	0	0	0.617264	-0.582676	1.5569	0.339754	1.04056	0	0
0.02	-2.55741	1.3911	1.17227	0.792301	0.697507	0.990377	0.676272	0.0527225	-0.0571442	0.561383	-0.112224	0	0	0.0372277	-0.222587	-0.152368	0.804601	-0.110743	0	0	0.0646454	0.149416	-0.0630411	-0.197313	-0.254807	0.518159	0.292845	0.902592	0	0	0.597866	-0.585969	1.54592	0.347694	1.0258	0	0
0.03	-2.56386	1.3916	1.1753	0.791079	0.684354	0.991428	0.674638	0.056696	-0.0604275	0.581464	-0.110463	0	0	0.0457006	-0.22216	-0.141007	0.834567	-0.136356	0	0	0.0655328	0.152932	-0.0603263	-0.197885	-0.253226	0.517937	0.289668	0.899537	0	0	0.575879	-0.58971	1.5321	0.355872	1.01085	0	0
0.04	-2.56955	1.3922	1.17819	0.789847	0.671277	0.992593	0.669449	0.059949	-0.06827	0.594504	-0.104821	0	0	0.0571396	-0.221383	-0.126925	0.867224	-0.164091	0	0	0.0662509	0.156207	-0.0579575	-0.198226	-0.251188	0.518163	0.286296	0.896653	0	0	0.553319	-0.592606	1.51816	0.363729	0.995719	0	0
0.05	-2.57188	1.39314	1.17753	0.788585	0.658316	0.993812	0.660289	0.0633182	-0.0780636	0.600011	-0.0991675	0	0	0.0705377	-0.220958	-0.113059	0.902442	-0.192103	0	0	0.0661378	0.159739	-0.0545217	-0.199155	-0.249519	0.516913	0.284598	0.892704	0	0	0.531371	-0.594846	1.50528	0.372462	0.982968	0	0
0.06	-2.57121	1.39405	1.17352	0.787294	0.64552	0.995001	0.648806	0.0671616	-0.088206	0.601326	-0.0931277	0	0	0.0860252	-0.220663	-0.0988685	0.940747	-0.217544	0	0	0.0655776	0.163665	-0.0498698	-0.200453	-0.248131	0.515419	0.283808	0.888602	0	0	0.510572	-0.596535	1.49504	0.382211	0.971766	0	0
0.07	-2.56791	1.39518	1.16638	0.78602	0.632903	0.996167	0.636007	0.0712469	-0.0977905	0.601591	-0.085939	0	0	0.102923	-0.220095	-0.0847326	0.981854	-0.238419	0	0	0.0642728	0.167833	-0.0438365	-0.202005	-0.247217	0.514411	0.283928	0.884867	0	0	0.491091	-0.597554	1.48625	0.392772	0.961291	0	0
0.08	-2.56181	1.39673	1.15587	0.784849	0.620437	0.997383	0.621648	0.0755129	-0.105136	0.601481	-0.0766733	0	0	0.120555	-0.219176	-0.0712206	1.02467	-0.255049	0	0	0.062045	0.172324	-0.0364488	-0.203854	-0.246998	0.51343	0.284946	0.880846	0	0	0.472739	-0.597489	1.47877	0.403318	0.952242	0	0
0.09	-2.5577	1.39907	1.14619	0.783645	0.608161	0.998667	0.605562	0.0799478	-0.10723	0.601022	-0.0656	0	0	0.138569	-0.21741	-0.0587462	1.0679	-0.268647	0	0	0.0586493	0.176063	-0.0274525	-0.205385	-0.246799	0.51167	0.285852	0.876134	0	0	0.455126	-0.596863	1.47146	0.413574	0.946423	0	0
0.1	-2.55699	1.40281	1.13849	0.782335	0.596057	1.00007	0.587496	0.0844978	-0.103689	0.599909	-0.0527566	0	0	0.156123	-0.214893	-0.0490928	1.11015	-0.279016	0	0	0.0534396	0.178409	-0.0167463	-0.206043	-0.246306	0.509537	0.285918	0.870109	0	0	0.438133	-0.595744	1.46361	0.423321	0.94203	0	0
0.11	-2.55727	1.40779	1.13093	0.780991	0.584065	1.00163	0.567712	0.0891362	-0.0978339	0.597179	-0.0407565	0	0	0.172892	-0.212195	-0.0427409	1.15044	-0.282899	0	0	0.0467212	0.179799	-0.00521632	-0.205902	-0.245724	0.507728	0.285298	0.863555	0	0	0.421008	-0.593818	1.45375	0.431927	0.938312	0	0
0.12	-2.55725	1.41343	1.12259	0.77962	0.572206	1.00335	0.547174	0.0943097	-0.0913635	0.592979	-0.0304258	0	0	0.18928	-0.209819	-0.039726	1.18838	-0.277937	0	0	0.0391165	0.180588	0.00649033	-0.205127	-0.24514	0.506475	0.284348	0.857161	0	0	0.403419	-0.591068	1.44163	0.439205	0.935439	0	0
0.13	-2.55742	1.41928	1.11446	0.778259	0.560479	1.00515	0.526117	0.0997223	-0.0849038	0.587272	-0.0214434	0	0	0.205891	-0.207808	-0.039971	1.22382	-0.264147	0	0	0.0313372	0.180839	0.0177419	-0.20375	-0.244472	0.505543	0.282789	0.850732	0	0	0.385171	-0.587821	1.42723	0.445609	0.934705	0	0
0.14	-2.55937	1.42462	1.10867	0.776943	0.548881	1.00697	0.504849	0.104868	-0.0785636	0.579325	-0.0137985	0	0	0.223744	-0.206054	-0.0425	1.25647	-0.24495	0	0	0.0245202	0.180705	0.0277267	-0.201921	-0.243739	0.505126	0.280557	0.843871	0	0	0.365927	-0.58395	1.41052	0.450877	0.935455	0	0
0.15	-2.56354	1.42841	1.10631	0.775707	0.537464	1.00865	0.484272	0.109611	-0.0728884	0.569367	-0.00824121	0	0	0.24457	-0.204712	-0.0454294	1.28629	-0.227253	0	0	0.019841	0.18072	0.036113	-0.200173	-0.243009	0.504565	0.277994	0.838323	0	0	0.346545	-0.579426	1.39491	0.455015	0.93704	0	0
0.16	-2.56547	1.43194	1.10251	0.774545	0.526122	1.01035	0.461495	0.11421	-0.0669722	0.555414	-0.00230525	0	0	0.265934	-0.203564	-0.0485552	1.31191	-0.209404	0	0	0.0156005	0.180906	0.043345	-0.198122	-0.242183	0.504817	0.27463	0.832646	0	0	0.326605	-0.573817	1.37738	0.457645	0.939642	0	0
0.17	-2.5654	1.4355	1.09729	0.773439	0.514862	1.01208	0.436317	0.118489	-0.0603997	0.538018	0.003889	0	0	0.287268	-0.202142	-0.0508062	1.33267	-0.193312	0	0	0.0114967	0.181206	0.0497697	-0.195801	-0.241315	0.505795	0.270626	0.826889	0	0	0.306525	-0.567036	1.35881	0.458768	0.942741	0	0
0.18	-2.56587	1.43887	1.09288	0.772397	0.503734	1.01378	0.409868	0.122254	-0.0528355	0.517353	0.00932412	0	0	0.308833	-0.200256	-0.0520679	1.34859	-0.179373	0	0	0.00768867	0.18147	0.0559568	-0.193644	-0.240707	0.507643	0.266743	0.821496	0	0	0.286792	-0.559271	1.34028	0.458768	0.945164	0	0
0.19	-2.56669	1.44215	1.08903	0.771464	0.492728	1.01544	0.382504	0.125453	-0.044899	0.493936	0.013002	0	0	0.330264	-0.197799	-0.0522525	1.35941	-0.167318	0	0	0.00395256	0.181729	0.0621749	-0.191721	-0.240442	0.510085	0.263124	0.816467	0	0	0.267942	-0.550576	1.32348	0.457763	0.946791	0	0
0.2	-2.56828	1.44552	1.08568	0.770561	0.481845	1.01704	0.354602	0.12836	-0.0367537	0.468512	0.0141162	0	0	0.351062	-0.194504	-0.0514159	1.36516	-0.156042	0	0	-0.000117848	0.18176	0.0689632	-0.19008	-0.240478	0.512607	0.260068	0.811551	0	0	0.250348	-0.541417	1.30898	0.456437	0.947302	0	0
0.21	-2.57285	1.44885	1.08487	0.76968	0.471102	1.01851	0.326944	0.130823	-0.0289685	0.441799	0.0126783	0	0	0.371439	-0.190283	-0.0501413	1.36626	-0.145093	0	0	-0.00447665	0.181335	0.0765108	-0.188891	-0.240923	0.514777	0.258105	0.806576	0	0	0.234143	-0.532217	1.2968	0.455588	0.946581	0	0
0.22	-2.57551	1.45296	1.08208	0.768848	0.460445	1.01996	0.298122	0.133035	-0.0214133	0.413066	0.00921558	0	0	0.390171	-0.185796	-0.0495833	1.36269	-0.134654	0	0	-0.0102054	0.1806	0.0844438	-0.188008	-0.241837	0.516286	0.25734	0.801426	0	0	0.219749	-0.523387	1.28833	0.455322	0.946497	0	0
0.23	-2.56518	1.45935	1.06601	0.768022	0.44979	1.02158	0.264266	0.135723	-0.011743	0.377763	-0.000437922	0	0	0.404698	-0.181895	-0.051293	1.3545	-0.122909	0	0	-0.0195887	0.179812	0.0931199	-0.187236	-0.243528	0.518276	0.25828	0.794591	0	0	0.207226	-0.514515	1.28157	0.455127	0.945259	0	0
0.24	-2.56825	1.4644	1.06193	0.767053	0.439189	1.02285	0.237055	0.137205	-0.00357216	0.354649	-0.00554862	0	0	0.420363	-0.177599	-0.0557143	1.3431	-0.111295	0	0	-0.0267841	0.177796	0.102714	-0.187195	-0.245127	0.518901	0.259734	0.790585	0	0	0.195145	-0.506363	1.27708	0.4555	0.942861	0	0
0.25	-2.56219	1.47044	1.04878	0.766086	0.428682	1.02408	0.208395	0.138644	0.00564353	0.33123	-0.0109803	0	0	0.433824	-0.173566	-0.0618708	1.32862	-0.0983074	0	0	-0.0358104	0.175852	0.112354	-0.187086	-0.247082	0.518817	0.261888	0.78681	0	0	0.184409	-0.497837	1.27539	0.454924	0.941266	0	0
0.26	-2.52716	1.47957	1.00699	0.765166	0.418163	1.02553	0.170093	0.140623	0.0198194	0.293481	-0.0247358	0	0	0.441492	-0.170221	-0.0698408	1.31084	-0.0840501	0	0	-0.0500852	0.174216	0.122575	-0.186963	-0.249854	0.51813	0.265826	0.781523	0	0	0.176099	-0.489443	1.27615	0.454854	0.936635	0	0
0.27	-2.51062	1.48623	0.983889	0.764307	0.407747	1.02647	0.138538	0.140964	0.0312641	0.264951	-0.0307035	0	0	0.452215	-0.165472	-0.0776409	1.29128	-0.0731509	0	0	-0.0600378	0.171688	0.131247	-0.186897	-0.252206	0.517229	0.268641	0.77913	0	0	0.166473	-0.481122	1.27718	0.453603	0.938241	0	0
0.28	-2.45674	1.49593	0.9236	0.76345	0.397308	1.02762	0.0981341	0.141044	0.0455676	0.223528	-0.0482592	0	0	0.456601	-0.161985	-0.0888671	1.2685	-0.0617539	0	0	-0.0752409	0.169104	0.140649	-0.187232	-0.255438	0.514621	0.273996	0.776346	0	0	0.158904	-0.472656	1.27868	0.452004	0.939227	0	0
0.29	-2.43266	1.50216	0.892937	0.762611	0.387014	1.02819	0.0705592	0.139715	0.0517196	0.203097	-0.0543923	0	0	0.465158	-0.157695	-0.100062	1.24424	-0.0518707	0	0	-0.0847669	0.165933	0.14861	-0.187175	-0.258159	0.513122	0.277333	0.775827	0	0	0.149673	-0.463964	1.27755	0.449329	0.938391	0	0
0.3	-2.38794	1.50914	0.841608	0.761689	0.376684	1.02868	0.0408687	0.138523	0.0590386	0.180732	-0.0603126	0	0	0.470557	-0.154563	-0.113857	1.21719	-0.0406705	0	0	-0.0957071	0.162615	0.156566	-0.187116	-0.260904	0.510872	0.281007	0.77572	0	0	0.140948	-0.455509	1.27576	0.446584	0.93613	0	0
